<svg id="Group_916" data-name="Group 916" xmlns="http://www.w3.org/2000/svg" xmlns:xlink="http://www.w3.org/1999/xlink" width="26.815" height="26.815" viewBox="0 0 26.815 26.815">
  <defs>
    <clipPath id="clip-path">
      <rect id="Rectangle_248" data-name="Rectangle 248" width="26.815" height="26.815"/>
    </clipPath>
  </defs>
  <g id="Group_915" data-name="Group 915" clip-path="url(#clip-path)">
    <path id="Path_129" data-name="Path 129" d="M13.408,0A13.408,13.408,0,1,0,26.815,13.408,13.408,13.408,0,0,0,13.408,0m0,4.609a.838.838,0,0,1,.838.838v7.476l5.748,3.326a.834.834,0,0,1,.314,1.139.845.845,0,0,1-1.152.3l-6.167-3.562a.829.829,0,0,1-.419-.72V5.447a.838.838,0,0,1,.838-.838Z"/>
  </g>
</svg>
